<svg width="615" height="536" viewBox="0 0 615 536" fill="none" xmlns="http://www.w3.org/2000/svg">
<g filter="url(#filter0_d_304_56)">
<path d="M194.959 458.115C192.415 458.115 190.231 457.575 188.407 456.495C186.583 455.391 185.179 453.867 184.195 451.923C183.211 449.955 182.719 447.687 182.719 445.119C182.719 442.551 183.211 440.283 184.195 438.315C185.179 436.347 186.583 434.811 188.407 433.707C190.231 432.603 192.415 432.051 194.959 432.051C197.983 432.051 200.455 432.807 202.375 434.319C204.319 435.807 205.531 437.907 206.011 440.619H200.935C200.623 439.251 199.951 438.183 198.919 437.415C197.911 436.623 196.567 436.227 194.887 436.227C192.559 436.227 190.735 437.019 189.415 438.603C188.095 440.187 187.435 442.359 187.435 445.119C187.435 447.879 188.095 450.051 189.415 451.635C190.735 453.195 192.559 453.975 194.887 453.975C196.567 453.975 197.911 453.615 198.919 452.895C199.951 452.151 200.623 451.131 200.935 449.835H206.011C205.531 452.427 204.319 454.455 202.375 455.919C200.455 457.383 197.983 458.115 194.959 458.115ZM218.549 458.115C216.821 458.115 215.261 457.719 213.869 456.927C212.501 456.135 211.409 455.043 210.593 453.651C209.801 452.235 209.405 450.603 209.405 448.755C209.405 446.907 209.813 445.287 210.629 443.895C211.445 442.479 212.537 441.375 213.905 440.583C215.297 439.791 216.857 439.395 218.585 439.395C220.289 439.395 221.825 439.791 223.193 440.583C224.585 441.375 225.677 442.479 226.469 443.895C227.285 445.287 227.693 446.907 227.693 448.755C227.693 450.603 227.285 452.235 226.469 453.651C225.677 455.043 224.585 456.135 223.193 456.927C221.801 457.719 220.253 458.115 218.549 458.115ZM218.549 454.119C219.749 454.119 220.793 453.675 221.681 452.787C222.569 451.875 223.013 450.531 223.013 448.755C223.013 446.979 222.569 445.647 221.681 444.759C220.793 443.847 219.761 443.391 218.585 443.391C217.361 443.391 216.305 443.847 215.417 444.759C214.553 445.647 214.121 446.979 214.121 448.755C214.121 450.531 214.553 451.875 215.417 452.787C216.305 453.675 217.349 454.119 218.549 454.119ZM231.814 457.683V439.827H235.882L236.278 442.239C236.854 441.375 237.61 440.691 238.546 440.187C239.506 439.659 240.61 439.395 241.858 439.395C244.618 439.395 246.574 440.463 247.726 442.599C248.374 441.615 249.238 440.835 250.318 440.259C251.422 439.683 252.622 439.395 253.918 439.395C256.246 439.395 258.034 440.091 259.282 441.483C260.53 442.875 261.154 444.915 261.154 447.603V457.683H256.546V448.035C256.546 446.499 256.246 445.323 255.646 444.507C255.07 443.691 254.17 443.283 252.946 443.283C251.698 443.283 250.69 443.739 249.922 444.651C249.178 445.563 248.806 446.835 248.806 448.467V457.683H244.198V448.035C244.198 446.499 243.898 445.323 243.298 444.507C242.698 443.691 241.774 443.283 240.526 443.283C239.302 443.283 238.306 443.739 237.538 444.651C236.794 445.563 236.422 446.835 236.422 448.467V457.683H231.814ZM268.012 437.055C267.172 437.055 266.476 436.803 265.924 436.299C265.396 435.795 265.132 435.159 265.132 434.391C265.132 433.623 265.396 432.999 265.924 432.519C266.476 432.015 267.172 431.763 268.012 431.763C268.852 431.763 269.536 432.015 270.064 432.519C270.616 432.999 270.892 433.623 270.892 434.391C270.892 435.159 270.616 435.795 270.064 436.299C269.536 436.803 268.852 437.055 268.012 437.055ZM265.708 457.683V439.827H270.316V457.683H265.708ZM275.126 457.683V439.827H279.194L279.554 442.851C280.106 441.795 280.898 440.955 281.93 440.331C282.986 439.707 284.222 439.395 285.638 439.395C287.846 439.395 289.562 440.091 290.786 441.483C292.01 442.875 292.622 444.915 292.622 447.603V457.683H288.014V448.035C288.014 446.499 287.702 445.323 287.078 444.507C286.454 443.691 285.482 443.283 284.162 443.283C282.866 443.283 281.798 443.739 280.958 444.651C280.142 445.563 279.734 446.835 279.734 448.467V457.683H275.126ZM304.588 452.355C303.724 452.355 302.92 452.259 302.176 452.067L300.844 453.399C301.252 453.615 301.804 453.795 302.5 453.939C303.196 454.083 304.324 454.227 305.884 454.371C308.26 454.587 309.988 455.151 311.068 456.063C312.148 456.975 312.688 458.235 312.688 459.843C312.688 460.899 312.4 461.895 311.824 462.831C311.248 463.791 310.36 464.559 309.16 465.135C307.96 465.735 306.424 466.035 304.552 466.035C302.008 466.035 299.956 465.555 298.396 464.595C296.836 463.659 296.056 462.243 296.056 460.347C296.056 458.739 296.836 457.347 298.396 456.171C297.916 455.955 297.496 455.727 297.136 455.487C296.8 455.247 296.5 454.995 296.236 454.731V453.903L299.368 450.591C297.976 449.367 297.28 447.795 297.28 445.875C297.28 444.675 297.568 443.583 298.144 442.599C298.744 441.615 299.584 440.835 300.664 440.259C301.744 439.683 303.052 439.395 304.588 439.395C305.596 439.395 306.532 439.539 307.396 439.827H314.164V442.635L311.104 442.851C311.584 443.763 311.824 444.771 311.824 445.875C311.824 447.075 311.536 448.167 310.96 449.151C310.384 450.135 309.544 450.915 308.44 451.491C307.36 452.067 306.076 452.355 304.588 452.355ZM304.588 448.827C305.524 448.827 306.292 448.575 306.892 448.071C307.516 447.567 307.828 446.847 307.828 445.911C307.828 444.975 307.516 444.255 306.892 443.751C306.292 443.247 305.524 442.995 304.588 442.995C303.604 442.995 302.812 443.247 302.212 443.751C301.612 444.255 301.312 444.975 301.312 445.911C301.312 446.847 301.612 447.567 302.212 448.071C302.812 448.575 303.604 448.827 304.588 448.827ZM300.268 459.879C300.268 460.767 300.676 461.427 301.492 461.859C302.332 462.315 303.352 462.543 304.552 462.543C305.704 462.543 306.64 462.303 307.36 461.823C308.08 461.367 308.44 460.743 308.44 459.951C308.44 459.303 308.2 458.763 307.72 458.331C307.264 457.899 306.34 457.635 304.948 457.539C303.964 457.467 303.052 457.359 302.212 457.215C301.516 457.599 301.012 458.019 300.7 458.475C300.412 458.931 300.268 459.399 300.268 459.879ZM334.815 458.115C332.967 458.115 331.335 457.803 329.919 457.179C328.503 456.531 327.387 455.619 326.571 454.443C325.755 453.243 325.335 451.791 325.311 450.087H330.171C330.219 451.263 330.639 452.259 331.431 453.075C332.247 453.867 333.363 454.263 334.779 454.263C336.003 454.263 336.975 453.975 337.695 453.399C338.415 452.799 338.775 452.007 338.775 451.023C338.775 449.991 338.451 449.187 337.803 448.611C337.179 448.035 336.339 447.567 335.283 447.207C334.227 446.847 333.099 446.463 331.899 446.055C329.955 445.383 328.467 444.519 327.435 443.463C326.427 442.407 325.923 441.003 325.923 439.251C325.899 437.763 326.247 436.491 326.967 435.435C327.711 434.355 328.719 433.527 329.991 432.951C331.263 432.351 332.727 432.051 334.383 432.051C336.063 432.051 337.539 432.351 338.811 432.951C340.107 433.551 341.115 434.391 341.835 435.471C342.579 436.551 342.975 437.835 343.023 439.323H338.091C338.067 438.435 337.719 437.655 337.047 436.983C336.399 436.287 335.487 435.939 334.311 435.939C333.303 435.915 332.451 436.167 331.755 436.695C331.083 437.199 330.747 437.943 330.747 438.927C330.747 439.767 331.011 440.439 331.539 440.943C332.067 441.423 332.787 441.831 333.699 442.167C334.611 442.503 335.655 442.863 336.831 443.247C338.079 443.679 339.219 444.183 340.251 444.759C341.283 445.335 342.111 446.103 342.735 447.063C343.359 447.999 343.671 449.211 343.671 450.699C343.671 452.019 343.335 453.243 342.663 454.371C341.991 455.499 340.995 456.411 339.675 457.107C338.355 457.779 336.735 458.115 334.815 458.115ZM356.151 458.115C354.423 458.115 352.863 457.719 351.471 456.927C350.103 456.135 349.011 455.043 348.195 453.651C347.403 452.235 347.007 450.603 347.007 448.755C347.007 446.907 347.415 445.287 348.231 443.895C349.047 442.479 350.139 441.375 351.507 440.583C352.899 439.791 354.459 439.395 356.187 439.395C357.891 439.395 359.427 439.791 360.795 440.583C362.187 441.375 363.279 442.479 364.071 443.895C364.887 445.287 365.295 446.907 365.295 448.755C365.295 450.603 364.887 452.235 364.071 453.651C363.279 455.043 362.187 456.135 360.795 456.927C359.403 457.719 357.855 458.115 356.151 458.115ZM356.151 454.119C357.351 454.119 358.395 453.675 359.283 452.787C360.171 451.875 360.615 450.531 360.615 448.755C360.615 446.979 360.171 445.647 359.283 444.759C358.395 443.847 357.363 443.391 356.187 443.391C354.963 443.391 353.907 443.847 353.019 444.759C352.155 445.647 351.723 446.979 351.723 448.755C351.723 450.531 352.155 451.875 353.019 452.787C353.907 453.675 354.951 454.119 356.151 454.119ZM377.983 458.115C376.255 458.115 374.695 457.719 373.303 456.927C371.935 456.135 370.843 455.043 370.027 453.651C369.235 452.235 368.839 450.603 368.839 448.755C368.839 446.907 369.247 445.287 370.063 443.895C370.879 442.479 371.971 441.375 373.339 440.583C374.731 439.791 376.291 439.395 378.019 439.395C379.723 439.395 381.259 439.791 382.627 440.583C384.019 441.375 385.111 442.479 385.903 443.895C386.719 445.287 387.127 446.907 387.127 448.755C387.127 450.603 386.719 452.235 385.903 453.651C385.111 455.043 384.019 456.135 382.627 456.927C381.235 457.719 379.687 458.115 377.983 458.115ZM377.983 454.119C379.183 454.119 380.227 453.675 381.115 452.787C382.003 451.875 382.447 450.531 382.447 448.755C382.447 446.979 382.003 445.647 381.115 444.759C380.227 443.847 379.195 443.391 378.019 443.391C376.795 443.391 375.739 443.847 374.851 444.759C373.987 445.647 373.555 446.979 373.555 448.755C373.555 450.531 373.987 451.875 374.851 452.787C375.739 453.675 376.783 454.119 377.983 454.119ZM391.247 457.683V439.827H395.315L395.675 442.851C396.227 441.795 397.019 440.955 398.051 440.331C399.107 439.707 400.343 439.395 401.759 439.395C403.967 439.395 405.683 440.091 406.907 441.483C408.131 442.875 408.743 444.915 408.743 447.603V457.683H404.135V448.035C404.135 446.499 403.823 445.323 403.199 444.507C402.575 443.691 401.603 443.283 400.283 443.283C398.987 443.283 397.919 443.739 397.079 444.651C396.263 445.563 395.855 446.835 395.855 448.467V457.683H391.247Z" fill="black"/>
<g filter="url(#filter1_f_304_56)">
<ellipse cx="295.954" cy="343.352" rx="160.372" ry="30.9379" fill="#1F88F8" fill-opacity="0.35"/>
</g>
<path d="M301.89 381.144C393.74 381.144 468.199 306.685 468.199 214.836C468.199 122.986 393.74 48.5276 301.89 48.5276C210.041 48.5276 135.582 122.986 135.582 214.836C135.582 306.685 210.041 381.144 301.89 381.144Z" fill="url(#paint0_linear_304_56)"/>
<path d="M430.545 115.755H219.305V219.999H430.545V115.755Z" fill="url(#paint1_linear_304_56)"/>
<path d="M430.545 115.755H451.747C465.569 115.755 478.825 121.245 488.599 131.019C498.373 140.793 503.864 154.049 503.864 167.871V167.871C503.864 181.693 498.373 194.949 488.599 204.723C478.825 214.496 465.569 219.987 451.747 219.987H430.545V115.755Z" fill="url(#paint2_linear_304_56)"/>
<path d="M444.258 131.089H456.388C465.717 131.089 474.663 134.795 481.26 141.391C487.856 147.987 491.562 156.934 491.562 166.263V169.492C491.562 178.82 487.856 187.767 481.26 194.363C474.663 200.96 465.717 204.666 456.388 204.666H444.258V131.089Z" fill="url(#paint3_linear_304_56)"/>
<path d="M430.544 133.25H237.045V219.999H430.544V133.25Z" fill="url(#paint4_linear_304_56)"/>
<rect x="168.835" y="237.354" width="78.4517" height="100.473" fill="url(#paint5_linear_304_56)"/>
<rect x="265.179" y="237.354" width="78.4517" height="100.473" fill="url(#paint6_linear_304_56)"/>
<rect x="361.524" y="237.354" width="50.9248" height="100.473" fill="url(#paint7_linear_304_56)"/>
<path d="M430.545 115.755H412.51V219.999H430.545V115.755Z" fill="url(#paint8_linear_304_56)"/>
<path d="M265.179 219.461L247.287 219.461L247.287 355.719L265.179 355.719L265.179 219.461Z" fill="url(#paint9_linear_304_56)"/>
<path fill-rule="evenodd" clip-rule="evenodd" d="M155.689 219.461L169.602 219.461L169.602 355.719H155.689C153.067 355.719 150.942 353.594 150.942 350.973L150.942 224.207C150.942 221.586 153.067 219.461 155.689 219.461ZM351.889 237.354V219.461H169.602V237.354H351.889ZM351.889 355.72V337.827H169.602V355.72H351.889Z" fill="url(#paint10_linear_304_56)"/>
<path fill-rule="evenodd" clip-rule="evenodd" d="M361.524 219.461L348.378 219.461C345.756 219.461 343.631 221.586 343.631 224.207L343.631 355.719H361.523V355.72H412.448L412.448 355.719H425.594C428.216 355.719 430.341 353.594 430.341 350.973L430.341 219.461L412.448 219.461H361.524V219.461ZM412.448 237.354H361.524L361.524 337.827H412.448V237.354Z" fill="url(#paint11_linear_304_56)"/>
<path d="M233.461 220.22V220.417V226.617V271.784H283.179C283.703 271.784 284.128 271.359 284.128 270.835V226.617V221.17C284.128 220.645 283.703 220.22 283.179 220.22H233.461Z" fill="url(#paint12_linear_304_56)"/>
<path d="M230.052 220.22C229.527 220.22 229.102 220.645 229.102 221.17V270.835C229.102 271.359 229.527 271.784 230.052 271.784H279.77V220.22H230.052Z" fill="url(#paint13_linear_304_56)"/>
<path d="M272.174 225.156H236.709C235.661 225.156 234.811 226.006 234.811 227.054V264.533C234.811 265.581 235.661 266.431 236.709 266.431H272.174C273.223 266.431 274.073 265.581 274.073 264.533V227.054C274.073 226.006 273.223 225.156 272.174 225.156Z" fill="url(#paint14_linear_304_56)"/>
<g filter="url(#filter2_d_304_56)">
<path d="M139.932 185.325L158.986 232.186C159.246 232.829 159.631 233.413 160.117 233.907C160.604 234.4 161.183 234.793 161.822 235.062C162.461 235.331 163.146 235.472 163.839 235.475C164.533 235.479 165.22 235.346 165.861 235.084L208.561 217.736C209.859 217.208 210.895 216.186 211.44 214.894C211.986 213.603 211.997 212.148 211.471 210.849L189.445 156.682C188.917 155.387 187.896 154.354 186.607 153.811C185.318 153.268 183.866 153.258 182.57 153.785L147.089 168.21L139.932 185.325Z" fill="url(#paint15_linear_304_56)"/>
</g>
<g filter="url(#filter3_d_304_56)">
<path d="M441.708 157.797L422.654 204.659C422.394 205.301 422.009 205.886 421.523 206.379C421.036 206.873 420.457 207.266 419.818 207.535C419.179 207.804 418.494 207.944 417.8 207.948C417.107 207.952 416.42 207.819 415.779 207.556L373.079 190.209C371.781 189.68 370.745 188.658 370.199 187.367C369.654 186.076 369.643 184.621 370.169 183.321L392.194 129.155C392.723 127.859 393.743 126.827 395.033 126.283C396.322 125.74 397.774 125.731 399.07 126.257L434.55 140.683L441.708 157.797Z" fill="url(#paint16_linear_304_56)"/>
</g>
<path d="M139.932 185.324L152.049 180.401L147.102 168.21L139.932 185.324Z" fill="url(#paint17_linear_304_56)"/>
<path d="M441.708 157.797L429.591 152.874L434.538 140.683L441.708 157.797Z" fill="url(#paint18_linear_304_56)"/>
<path d="M259.611 247.524C261.173 246.426 262.345 244.858 262.956 243.049C263.567 241.24 263.586 239.283 263.01 237.462C262.434 235.641 261.293 234.051 259.753 232.923C258.212 231.794 256.352 231.186 254.442 231.186C252.532 231.186 250.672 231.794 249.131 232.923C247.591 234.051 246.45 235.641 245.874 237.462C245.298 239.283 245.317 241.24 245.928 243.049C246.539 244.858 247.711 246.426 249.273 247.524L245.418 260.796H263.453L259.611 247.524Z" fill="url(#paint19_linear_304_56)"/>
<path d="M370.694 108.253C370.694 110.184 370.404 112.105 369.835 113.95C368.912 116.909 367.281 119.597 365.084 121.783C364.439 122.436 363.745 123.039 363.009 123.587C362.525 123.965 362.016 124.309 361.487 124.619C360.958 124.942 360.413 125.238 359.854 125.503C359.019 125.915 358.153 126.26 357.263 126.534C355.418 127.103 353.498 127.393 351.567 127.393H348.006V219.656H248.562V106.252C248.578 101.715 250.388 97.3681 253.596 94.1598C256.804 90.9514 261.151 89.1418 265.688 89.1256H351.518C353.908 89.1164 356.279 89.5622 358.503 90.4393C359.12 90.6785 359.723 90.9531 360.308 91.2618C360.603 91.4092 360.885 91.5688 361.167 91.7407C361.399 91.8681 361.625 92.0074 361.843 92.1581C363.003 92.8917 364.077 93.7523 365.047 94.724C366.349 96.0284 367.457 97.5127 368.337 99.1315C368.932 100.222 369.418 101.37 369.786 102.557L370.044 103.478C370.202 104.093 370.329 104.716 370.424 105.344C370.589 106.305 370.68 107.278 370.694 108.253V108.253Z" fill="url(#paint20_linear_304_56)"/>
<path d="M370.694 108.253C370.694 110.184 370.405 112.105 369.835 113.95C369.459 115.134 368.974 116.28 368.386 117.375C367.497 118.992 366.386 120.475 365.084 121.783C364.439 122.436 363.745 123.039 363.009 123.587C362.518 123.956 362.015 124.287 361.487 124.619C360.959 124.942 360.413 125.237 359.854 125.503C359.017 125.909 358.151 126.254 357.263 126.534C355.418 127.103 353.498 127.393 351.567 127.393H348.006V106.252C348.014 102.871 349.019 99.5679 350.895 96.7553C352.771 93.9426 355.434 91.7456 358.552 90.4392C359.166 90.6848 359.78 90.9548 360.357 91.2618C360.652 91.4091 360.934 91.5687 361.216 91.7406C361.449 91.868 361.674 92.0073 361.892 92.158C363.052 92.8916 364.127 93.7522 365.096 94.7239C366.398 96.0284 367.506 97.5126 368.386 99.1314C368.976 100.225 369.462 101.372 369.835 102.557L370.093 103.477C370.253 104.092 370.38 104.715 370.473 105.344C370.622 106.306 370.696 107.279 370.694 108.253V108.253Z" fill="url(#paint21_linear_304_56)"/>
<path d="M328.154 186.065H265.356C264.305 186.065 263.453 186.915 263.453 187.962C263.453 189.01 264.305 189.859 265.356 189.859H328.154C329.205 189.859 330.057 189.01 330.057 187.962C330.057 186.915 329.205 186.065 328.154 186.065Z" fill="#A5C4F1"/>
<path d="M328.154 166.606H265.356C264.305 166.606 263.453 167.456 263.453 168.503C263.453 169.551 264.305 170.4 265.356 170.4H328.154C329.205 170.4 330.057 169.551 330.057 168.503C330.057 167.456 329.205 166.606 328.154 166.606Z" fill="#A5C4F1"/>
<path d="M328.153 147.135H287.713C286.662 147.135 285.81 147.984 285.81 149.032C285.81 150.079 286.662 150.928 287.713 150.928H328.153C329.204 150.928 330.056 150.079 330.056 149.032C330.056 147.984 329.204 147.135 328.153 147.135Z" fill="#A5C4F1"/>
<path d="M301.623 127.663H264.914C264.107 127.663 263.453 128.317 263.453 129.124V129.996C263.453 130.803 264.107 131.457 264.914 131.457H301.623C302.43 131.457 303.084 130.803 303.084 129.996V129.124C303.084 128.317 302.43 127.663 301.623 127.663Z" fill="#A5C4F1"/>
<path d="M278.861 147.135H265.356C264.305 147.135 263.453 147.984 263.453 149.032C263.453 150.079 264.305 150.928 265.356 150.928H278.861C279.912 150.928 280.764 150.079 280.764 149.032C280.764 147.984 279.912 147.135 278.861 147.135Z" fill="#A5C4F1"/>
<path d="M169.523 237.354H175.717V337.827H169.523V237.354Z" fill="url(#paint22_linear_304_56)"/>
<path d="M265.179 271.762H270.685V337.827H265.179V271.762Z" fill="url(#paint23_linear_304_56)"/>
<path d="M361.524 237.354H367.718V337.827H361.524V237.354Z" fill="url(#paint24_linear_304_56)"/>
<g filter="url(#filter4_f_304_56)">
<ellipse cx="192.968" cy="152.571" rx="53.0364" ry="17.0474" fill="#FF4C77" fill-opacity="0.3"/>
</g>
<path d="M143.235 127.729C144.258 135.365 147.198 142.618 151.782 148.811C156.365 155.004 162.443 159.935 169.447 163.144C176.452 166.353 184.155 167.735 191.838 167.163C199.522 166.59 206.935 164.08 213.386 159.868L230.962 165.844C231.493 166.018 232.062 166.038 232.603 165.899C233.143 165.761 233.633 165.47 234.014 165.062C234.395 164.654 234.651 164.145 234.752 163.596C234.853 163.047 234.795 162.48 234.584 161.964L227.535 145.15C231.284 138.905 233.482 131.852 233.946 124.583C234.41 117.314 233.125 110.039 230.201 103.368C227.276 96.6971 222.796 90.8237 217.135 86.2396C211.474 81.6555 204.798 78.494 197.664 77.0199C190.531 75.5457 183.148 75.8017 176.134 77.7665C169.12 79.7312 162.679 83.3476 157.349 88.3128C152.02 93.278 147.957 99.4476 145.502 106.305C143.046 113.163 142.269 120.509 143.235 127.729V127.729Z" fill="url(#paint25_linear_304_56)"/>
<path d="M187.241 145.013C192.193 145.013 195.72 141.621 195.72 136.873C195.72 132.124 192.193 128.732 187.241 128.732C182.357 128.732 178.761 132.124 178.761 136.873C178.761 141.621 182.357 145.013 187.241 145.013ZM194.024 127.376C194.024 122.898 196.602 121.27 200.13 119.642C204.81 117.472 208.27 113.062 208.27 107.635C208.27 99.088 199.858 93.1184 188.462 93.1184C176.251 93.1184 167.636 99.9698 166.89 109.535L182.492 112.384C182.899 108.653 184.867 106.007 187.648 106.007C189.751 106.007 191.311 107.432 191.311 109.399C191.311 111.705 189.005 113.13 187.173 114.215C182.289 117.404 180.457 120.931 180.457 127.376H194.024Z" fill="white"/>
<path d="M415.841 95.065C415.841 99.2254 412.469 102.598 408.308 102.598C404.148 102.598 400.775 99.2254 400.775 95.065C400.775 90.9046 404.148 87.532 408.308 87.532C412.469 87.532 415.841 90.9046 415.841 95.065Z" stroke="url(#paint26_linear_304_56)" stroke-width="2.61276"/>
<circle cx="367.71" cy="372.001" r="7.53302" stroke="url(#paint27_linear_304_56)" stroke-width="2.61276"/>
<path d="M135.518 282.093C136.842 281.881 137.899 283.182 137.42 284.435L131.77 299.23C131.291 300.483 129.636 300.748 128.791 299.708L118.803 287.416C117.957 286.376 118.555 284.81 119.879 284.598L135.518 282.093Z" fill="url(#paint28_linear_304_56)"/>
<path d="M454.199 270.51C453.868 269.211 455.067 268.04 456.358 268.403L471.606 272.688C472.896 273.051 473.31 274.675 472.351 275.611L461.017 286.674C460.057 287.61 458.443 287.157 458.112 285.857L454.199 270.51Z" fill="url(#paint29_linear_304_56)"/>
<path d="M287.101 36.6456C287.616 34.5127 290.65 34.5127 291.164 36.6456L294.726 51.4001C294.91 52.1624 295.505 52.7575 296.267 52.9415L311.022 56.5032C313.155 57.0181 313.155 60.052 311.022 60.5669L296.267 64.1285C295.505 64.3125 294.91 64.9077 294.726 65.6699L291.164 80.4244C290.65 82.5574 287.616 82.5574 287.101 80.4244L283.539 65.6699C283.355 64.9077 282.76 64.3125 281.998 64.1285L267.243 60.5669C265.11 60.052 265.11 57.0181 267.243 56.5032L281.998 52.9415C282.76 52.7575 283.355 52.1624 283.539 51.4001L287.101 36.6456Z" fill="url(#paint30_linear_304_56)"/>
<path d="M210.254 358.53C210.769 356.397 213.803 356.397 214.318 358.53L217.88 373.284C218.064 374.046 218.659 374.642 219.421 374.826L234.176 378.387C236.309 378.902 236.309 381.936 234.176 382.451L219.421 386.013C218.659 386.197 218.064 386.792 217.88 387.554L214.318 402.308C213.803 404.441 210.769 404.441 210.254 402.308L206.693 387.554C206.509 386.792 205.914 386.197 205.151 386.013L190.397 382.451C188.264 381.936 188.264 378.902 190.397 378.387L205.151 374.826C205.914 374.642 206.509 374.046 206.693 373.284L210.254 358.53Z" fill="url(#paint31_linear_304_56)"/>
</g>
<defs>
<filter id="filter0_d_304_56" x="-20.6017" y="-14.0443" width="698" height="583" filterUnits="userSpaceOnUse" color-interpolation-filters="sRGB">
<feFlood flood-opacity="0" result="BackgroundImageFix"/>
<feColorMatrix in="SourceAlpha" type="matrix" values="0 0 0 0 0 0 0 0 0 0 0 0 0 0 0 0 0 0 127 0" result="hardAlpha"/>
<feMorphology radius="8" operator="erode" in="SourceAlpha" result="effect1_dropShadow_304_56"/>
<feOffset dx="21" dy="27"/>
<feGaussianBlur stdDeviation="25"/>
<feComposite in2="hardAlpha" operator="out"/>
<feColorMatrix type="matrix" values="0 0 0 0 0.833333 0 0 0 0 0.697917 0 0 0 0 0.697917 0 0 0 0.17 0"/>
<feBlend mode="normal" in2="BackgroundImageFix" result="effect1_dropShadow_304_56"/>
<feBlend mode="normal" in="SourceGraphic" in2="effect1_dropShadow_304_56" result="shape"/>
</filter>
<filter id="filter1_f_304_56" x="113.809" y="290.642" width="364.29" height="105.422" filterUnits="userSpaceOnUse" color-interpolation-filters="sRGB">
<feFlood flood-opacity="0" result="BackgroundImageFix"/>
<feBlend mode="normal" in="SourceGraphic" in2="BackgroundImageFix" result="shape"/>
<feGaussianBlur stdDeviation="10.8865" result="effect1_foregroundBlur_304_56"/>
</filter>
<filter id="filter2_d_304_56" x="137.084" y="153.396" width="90.9107" height="102.013" filterUnits="userSpaceOnUse" color-interpolation-filters="sRGB">
<feFlood flood-opacity="0" result="BackgroundImageFix"/>
<feColorMatrix in="SourceAlpha" type="matrix" values="0 0 0 0 0 0 0 0 0 0 0 0 0 0 0 0 0 0 127 0" result="hardAlpha"/>
<feOffset dx="6.64476" dy="10.4418"/>
<feGaussianBlur stdDeviation="4.74626"/>
<feComposite in2="hardAlpha" operator="out"/>
<feColorMatrix type="matrix" values="0 0 0 0 0.184314 0 0 0 0 0.254902 0 0 0 0 0.443137 0 0 0 0.15 0"/>
<feBlend mode="normal" in2="BackgroundImageFix" result="effect1_dropShadow_304_56"/>
<feBlend mode="normal" in="SourceGraphic" in2="effect1_dropShadow_304_56" result="shape"/>
</filter>
<filter id="filter3_d_304_56" x="366.935" y="125.869" width="90.9107" height="102.013" filterUnits="userSpaceOnUse" color-interpolation-filters="sRGB">
<feFlood flood-opacity="0" result="BackgroundImageFix"/>
<feColorMatrix in="SourceAlpha" type="matrix" values="0 0 0 0 0 0 0 0 0 0 0 0 0 0 0 0 0 0 127 0" result="hardAlpha"/>
<feOffset dx="6.64476" dy="10.4418"/>
<feGaussianBlur stdDeviation="4.74626"/>
<feComposite in2="hardAlpha" operator="out"/>
<feColorMatrix type="matrix" values="0 0 0 0 0.184314 0 0 0 0 0.254902 0 0 0 0 0.443137 0 0 0 0.15 0"/>
<feBlend mode="normal" in2="BackgroundImageFix" result="effect1_dropShadow_304_56"/>
<feBlend mode="normal" in="SourceGraphic" in2="effect1_dropShadow_304_56" result="shape"/>
</filter>
<filter id="filter4_f_304_56" x="118.159" y="113.75" width="149.619" height="77.6407" filterUnits="userSpaceOnUse" color-interpolation-filters="sRGB">
<feFlood flood-opacity="0" result="BackgroundImageFix"/>
<feBlend mode="normal" in="SourceGraphic" in2="BackgroundImageFix" result="shape"/>
<feGaussianBlur stdDeviation="10.8865" result="effect1_foregroundBlur_304_56"/>
</filter>
<linearGradient id="paint0_linear_304_56" x1="300.608" y1="-5.62646" x2="304.015" y2="578.423" gradientUnits="userSpaceOnUse">
<stop stop-color="#CAE0FF" stop-opacity="0"/>
<stop offset="1" stop-color="#BCD8FF"/>
</linearGradient>
<linearGradient id="paint1_linear_304_56" x1="324.925" y1="115.755" x2="324.925" y2="219.999" gradientUnits="userSpaceOnUse">
<stop stop-color="#ABCCFF"/>
<stop offset="1" stop-color="#70A8FF"/>
</linearGradient>
<linearGradient id="paint2_linear_304_56" x1="467.204" y1="115.755" x2="467.204" y2="219.987" gradientUnits="userSpaceOnUse">
<stop stop-color="#70A8FF"/>
<stop offset="1" stop-color="#5597FD"/>
</linearGradient>
<linearGradient id="paint3_linear_304_56" x1="498.47" y1="207.074" x2="451.674" y2="145.138" gradientUnits="userSpaceOnUse">
<stop stop-color="#EDF4FF"/>
<stop offset="1" stop-color="#ABCCFF"/>
</linearGradient>
<linearGradient id="paint4_linear_304_56" x1="333.795" y1="133.25" x2="333.795" y2="219.999" gradientUnits="userSpaceOnUse">
<stop stop-color="#2A64BE"/>
<stop offset="1" stop-color="#6095E7"/>
</linearGradient>
<linearGradient id="paint5_linear_304_56" x1="268.62" y1="374.988" x2="172.276" y2="284.149" gradientUnits="userSpaceOnUse">
<stop stop-color="#EDF4FF"/>
<stop offset="1" stop-color="#ABCCFF"/>
</linearGradient>
<linearGradient id="paint6_linear_304_56" x1="347.76" y1="346.773" x2="251.416" y2="306.859" gradientUnits="userSpaceOnUse">
<stop stop-color="#EDF4FF"/>
<stop offset="1" stop-color="#ABCCFF"/>
</linearGradient>
<linearGradient id="paint7_linear_304_56" x1="433.094" y1="348.838" x2="343.632" y2="264.192" gradientUnits="userSpaceOnUse">
<stop stop-color="#EDF4FF"/>
<stop offset="1" stop-color="#ABCCFF"/>
</linearGradient>
<linearGradient id="paint8_linear_304_56" x1="421.527" y1="115.755" x2="421.527" y2="219.999" gradientUnits="userSpaceOnUse">
<stop stop-color="#ABCCFF"/>
<stop offset="1" stop-color="#70A8FF"/>
</linearGradient>
<linearGradient id="paint9_linear_304_56" x1="225.265" y1="261.439" x2="212.878" y2="381.87" gradientUnits="userSpaceOnUse">
<stop stop-color="#ABCCFF"/>
<stop offset="1" stop-color="#70A8FF"/>
</linearGradient>
<linearGradient id="paint10_linear_304_56" x1="147.501" y1="243.547" x2="344.319" y2="334.386" gradientUnits="userSpaceOnUse">
<stop stop-color="#ABCCFF"/>
<stop offset="1" stop-color="#70A8FF"/>
</linearGradient>
<linearGradient id="paint11_linear_304_56" x1="498.47" y1="304.107" x2="375.287" y2="308.236" gradientUnits="userSpaceOnUse">
<stop stop-color="#70A8FF"/>
<stop offset="1" stop-color="#5597FD"/>
</linearGradient>
<linearGradient id="paint12_linear_304_56" x1="258.794" y1="220.22" x2="258.794" y2="271.784" gradientUnits="userSpaceOnUse">
<stop stop-color="#70A8FF"/>
<stop offset="1" stop-color="#5597FD"/>
</linearGradient>
<linearGradient id="paint13_linear_304_56" x1="254.436" y1="220.22" x2="254.436" y2="271.784" gradientUnits="userSpaceOnUse">
<stop stop-color="#ABCCFF"/>
<stop offset="1" stop-color="#70A8FF"/>
</linearGradient>
<linearGradient id="paint14_linear_304_56" x1="254.442" y1="225.156" x2="254.442" y2="266.431" gradientUnits="userSpaceOnUse">
<stop stop-color="#70A8FF"/>
<stop offset="1" stop-color="#5597FD"/>
</linearGradient>
<linearGradient id="paint15_linear_304_56" x1="204.052" y1="189.925" x2="155.624" y2="185.09" gradientUnits="userSpaceOnUse">
<stop stop-color="#C6DDFF"/>
<stop offset="1" stop-color="white"/>
</linearGradient>
<linearGradient id="paint16_linear_304_56" x1="377.588" y1="162.398" x2="426.016" y2="157.563" gradientUnits="userSpaceOnUse">
<stop stop-color="#C6DDFF"/>
<stop offset="1" stop-color="white"/>
</linearGradient>
<linearGradient id="paint17_linear_304_56" x1="145.991" y1="168.21" x2="145.991" y2="185.324" gradientUnits="userSpaceOnUse">
<stop stop-color="#EDF4FF"/>
<stop offset="1" stop-color="#ABCCFF"/>
</linearGradient>
<linearGradient id="paint18_linear_304_56" x1="435.649" y1="140.683" x2="435.649" y2="157.797" gradientUnits="userSpaceOnUse">
<stop stop-color="#EDF4FF"/>
<stop offset="1" stop-color="#ABCCFF"/>
</linearGradient>
<linearGradient id="paint19_linear_304_56" x1="250.039" y1="252.493" x2="267.932" y2="253.181" gradientUnits="userSpaceOnUse">
<stop stop-color="#2A64BE"/>
<stop offset="1" stop-color="#4B80D1"/>
</linearGradient>
<linearGradient id="paint20_linear_304_56" x1="309.628" y1="89.1255" x2="309.628" y2="219.656" gradientUnits="userSpaceOnUse">
<stop stop-color="#EDF4FF"/>
<stop offset="1" stop-color="#ABCCFF"/>
</linearGradient>
<linearGradient id="paint21_linear_304_56" x1="362.212" y1="122.429" x2="335.373" y2="101.783" gradientUnits="userSpaceOnUse">
<stop stop-color="#EDF4FF"/>
<stop offset="1" stop-color="#ABCCFF"/>
</linearGradient>
<linearGradient id="paint22_linear_304_56" x1="126.168" y1="333.01" x2="256.452" y2="318.373" gradientUnits="userSpaceOnUse">
<stop offset="0.09375" stop-color="#2A64BE"/>
<stop offset="1" stop-color="#2A64BE" stop-opacity="0"/>
</linearGradient>
<linearGradient id="paint23_linear_304_56" x1="226.642" y1="334.659" x2="341.267" y2="317.251" gradientUnits="userSpaceOnUse">
<stop offset="0.09375" stop-color="#2A64BE"/>
<stop offset="1" stop-color="#2A64BE" stop-opacity="0"/>
</linearGradient>
<linearGradient id="paint24_linear_304_56" x1="318.17" y1="333.01" x2="424.944" y2="342.379" gradientUnits="userSpaceOnUse">
<stop offset="0.09375" stop-color="#265FB8"/>
<stop offset="1" stop-color="#84B4FF"/>
</linearGradient>
<linearGradient id="paint25_linear_304_56" x1="143.272" y1="82.2131" x2="234.147" y2="168.344" gradientUnits="userSpaceOnUse">
<stop stop-color="#FF698D"/>
<stop offset="1" stop-color="#FF3868"/>
</linearGradient>
<linearGradient id="paint26_linear_304_56" x1="397.443" y1="89.5404" x2="425.066" y2="113.48" gradientUnits="userSpaceOnUse">
<stop stop-color="#94BFFF"/>
<stop offset="1" stop-color="#4C94FE"/>
</linearGradient>
<linearGradient id="paint27_linear_304_56" x1="356.845" y1="366.477" x2="384.468" y2="390.417" gradientUnits="userSpaceOnUse">
<stop stop-color="#94BFFF"/>
<stop offset="1" stop-color="#4C94FE"/>
</linearGradient>
<linearGradient id="paint28_linear_304_56" x1="138.497" y1="281.616" x2="118.897" y2="297.544" gradientUnits="userSpaceOnUse">
<stop stop-color="#70A8FF"/>
<stop offset="1" stop-color="#5597FD"/>
</linearGradient>
<linearGradient id="paint29_linear_304_56" x1="453.454" y1="267.587" x2="471.094" y2="285.661" gradientUnits="userSpaceOnUse">
<stop stop-color="#70A8FF"/>
<stop offset="1" stop-color="#5597FD"/>
</linearGradient>
<linearGradient id="paint30_linear_304_56" x1="289.133" y1="28.2285" x2="289.133" y2="88.8415" gradientUnits="userSpaceOnUse">
<stop stop-color="#70A8FF"/>
<stop offset="1" stop-color="#5597FD"/>
</linearGradient>
<linearGradient id="paint31_linear_304_56" x1="212.286" y1="350.113" x2="212.286" y2="410.726" gradientUnits="userSpaceOnUse">
<stop stop-color="#70A8FF"/>
<stop offset="1" stop-color="#5597FD"/>
</linearGradient>
</defs>
</svg>
