<svg width="50" height="46" viewBox="0 0 50 46" fill="none" xmlns="http://www.w3.org/2000/svg">
<path d="M17.1675 34.7813L19.3563 31.2469C19.492 31.0274 19.6815 30.8463 19.9068 30.7205C20.1321 30.5948 20.3858 30.5286 20.6438 30.5283H40.8827L30.4289 13.6412C30.3237 13.4696 30.2904 13.2635 30.3363 13.0675C30.3822 12.8715 30.5035 12.7016 30.6739 12.5946L33.9965 10.547C34.1675 10.442 34.373 10.4088 34.5683 10.4547C34.7635 10.5006 34.9328 10.6219 35.039 10.792L49.8869 34.773C49.9577 34.8879 49.9967 35.0196 49.9997 35.1545C50.0028 35.2895 49.9698 35.4228 49.9043 35.5408C49.8387 35.6588 49.7429 35.7572 49.6267 35.8259C49.5105 35.8946 49.3781 35.9312 49.2432 35.9317H17.8237C17.6889 35.9325 17.5564 35.8973 17.4397 35.8299C17.3229 35.7626 17.2262 35.6654 17.1594 35.5483C17.0926 35.4312 17.0582 35.2985 17.0596 35.1637C17.061 35.0289 17.0983 34.8969 17.1675 34.7813Z" fill="#7A6DE2"/>
<path d="M28.9623 45.4716H0.757462C0.622589 45.4719 0.4901 45.4361 0.373734 45.3679C0.257367 45.2997 0.161368 45.2016 0.0956877 45.0838C0.0300076 44.966 -0.00296055 44.8328 0.000208753 44.698C0.00337805 44.5631 0.042569 44.4316 0.113711 44.317L16.0415 18.5668C16.1091 18.4568 16.2038 18.366 16.3165 18.3031C16.4292 18.2401 16.5561 18.207 16.6852 18.207C16.8143 18.207 16.9413 18.2401 17.054 18.3031C17.1666 18.366 17.2613 18.4568 17.329 18.5668L19.3724 21.8645C19.5209 22.1047 19.5996 22.3815 19.5996 22.664C19.5996 22.9464 19.5209 23.2232 19.3724 23.4635L9.10137 40.0516H28.9623C29.1639 40.0516 29.3572 40.1317 29.4997 40.2742C29.6423 40.4168 29.7223 40.6101 29.7223 40.8117V44.7033C29.724 44.8039 29.7055 44.9039 29.668 44.9973C29.6305 45.0907 29.5747 45.1757 29.5039 45.2473C29.4331 45.3189 29.3488 45.3756 29.2557 45.4141C29.1627 45.4526 29.063 45.4722 28.9623 45.4716Z" fill="#7A6DE2"/>
<path d="M26.6331 25.6648L16.686 9.59582L6.71817 25.6648C6.58334 25.8851 6.39406 26.0669 6.16855 26.1927C5.94304 26.3186 5.68891 26.3842 5.43066 26.3833H1.2774C1.14189 26.3841 1.00867 26.3484 0.89169 26.28C0.774708 26.2116 0.678262 26.113 0.612453 25.9945C0.546643 25.8761 0.513893 25.7421 0.51762 25.6066C0.521348 25.4712 0.56142 25.3392 0.633645 25.2246L16.0215 0.363119C16.0889 0.252249 16.1838 0.160596 16.2969 0.0969999C16.41 0.0334035 16.5375 0 16.6673 0C16.7971 0 16.9247 0.0334035 17.0378 0.0969999C17.1509 0.160596 17.2457 0.252249 17.3132 0.363119L32.7176 25.2287C32.7898 25.3434 32.8299 25.4753 32.8336 25.6108C32.8374 25.7463 32.8046 25.8802 32.7388 25.9987C32.673 26.1171 32.5765 26.2157 32.4596 26.2841C32.3426 26.3525 32.2094 26.3882 32.0738 26.3875H27.9206C27.6619 26.3879 27.4076 26.3217 27.182 26.1951C26.9565 26.0685 26.7674 25.8858 26.6331 25.6648Z" fill="#7A6DE2"/>
</svg>
