<svg width="20" height="20" viewBox="0 0 20 20" fill="none" xmlns="http://www.w3.org/2000/svg">
<path fill-rule="evenodd" clip-rule="evenodd" d="M10.7775 3.03586C11.6334 2.17861 13.0217 2.17808 13.8783 3.03468L15.8658 5.02223C16.7151 5.87152 16.7239 7.24643 15.8856 8.10655L8.5211 15.6626C7.95836 16.24 7.18653 16.5656 6.38059 16.5655L4.18543 16.5654C3.16508 16.5654 2.35022 15.7148 2.39313 14.6946L2.48737 12.4541C2.51888 11.7051 2.83017 10.9952 3.35966 10.4649L10.7775 3.03586ZM13.0329 3.88132C12.6436 3.49196 12.0125 3.4922 11.6235 3.88186L10.297 5.21038L13.7106 8.62402L15.0295 7.27084C15.4105 6.87987 15.4065 6.25491 15.0205 5.86887L13.0329 3.88132ZM4.20566 11.3109L9.45159 6.05702L12.8755 9.48088L7.66495 14.8269C7.3273 15.1733 6.86421 15.3687 6.38064 15.3686L4.18548 15.3685C3.84536 15.3685 3.57374 15.085 3.58805 14.7449L3.68229 12.5044C3.70119 12.055 3.88797 11.6291 4.20566 11.3109ZM16.3628 16.507C16.693 16.507 16.9608 16.239 16.9608 15.9085C16.9608 15.578 16.693 15.3101 16.3628 15.3101H11.48C11.1497 15.3101 10.882 15.578 10.882 15.9085C10.882 16.239 11.1497 16.507 11.48 16.507H16.3628Z" fill="#7A6DE2"/>
</svg>
