<svg width="10" height="10" viewBox="0 0 10 10" fill="none" xmlns="http://www.w3.org/2000/svg">
<path d="M8.33333 3.75C8.77536 3.75 9.19928 3.57441 9.51184 3.26184C9.8244 2.94928 10 2.52536 10 2.08333V1.66667C10 1.22464 9.8244 0.800716 9.51184 0.488155C9.19928 0.175595 8.77536 0 8.33333 0H7.91667C7.47464 0 7.05072 0.175595 6.73816 0.488155C6.42559 0.800716 6.25 1.22464 6.25 1.66667V2.91667H3.75V1.66667C3.75 1.22464 3.57441 0.800716 3.26184 0.488155C2.94928 0.175595 2.52536 0 2.08333 0H1.66667C1.22464 0 0.800716 0.175595 0.488155 0.488155C0.175595 0.800716 0 1.22464 0 1.66667V2.08333C0 2.52536 0.175595 2.94928 0.488155 3.26184C0.800716 3.57441 1.22464 3.75 1.66667 3.75H2.91667V6.25H1.66667C1.22464 6.25 0.800716 6.42559 0.488155 6.73816C0.175595 7.05072 0 7.47464 0 7.91667V8.33333C0 8.77536 0.175595 9.19928 0.488155 9.51184C0.800716 9.8244 1.22464 10 1.66667 10H2.08333C2.52536 10 2.94928 9.8244 3.26184 9.51184C3.57441 9.19928 3.75 8.77536 3.75 8.33333V7.08333H6.25V8.33333C6.25 8.77536 6.42559 9.19928 6.73816 9.51184C7.05072 9.8244 7.47464 10 7.91667 10H8.33333C8.77536 10 9.19928 9.8244 9.51184 9.51184C9.8244 9.19928 10 8.77536 10 8.33333V7.91667C10 7.47464 9.8244 7.05072 9.51184 6.73816C9.19928 6.42559 8.77536 6.25 8.33333 6.25H7.08333V3.75H8.33333ZM7.08333 1.66667C7.08333 1.44565 7.17113 1.23369 7.32741 1.07741C7.48369 0.921131 7.69565 0.833333 7.91667 0.833333H8.33333C8.55435 0.833333 8.76631 0.921131 8.92259 1.07741C9.07887 1.23369 9.16667 1.44565 9.16667 1.66667V2.08333C9.16667 2.30435 9.07887 2.51631 8.92259 2.67259C8.76631 2.82887 8.55435 2.91667 8.33333 2.91667H7.08333V1.66667ZM1.66667 2.91667C1.44565 2.91667 1.23369 2.82887 1.07741 2.67259C0.921131 2.51631 0.833333 2.30435 0.833333 2.08333V1.66667C0.833333 1.44565 0.921131 1.23369 1.07741 1.07741C1.23369 0.921131 1.44565 0.833333 1.66667 0.833333H2.08333C2.30435 0.833333 2.51631 0.921131 2.67259 1.07741C2.82887 1.23369 2.91667 1.44565 2.91667 1.66667V2.91667H1.66667ZM2.91667 8.33333C2.91667 8.55435 2.82887 8.76631 2.67259 8.92259C2.51631 9.07887 2.30435 9.16667 2.08333 9.16667H1.66667C1.44565 9.16667 1.23369 9.07887 1.07741 8.92259C0.921131 8.76631 0.833333 8.55435 0.833333 8.33333V7.91667C0.833333 7.69565 0.921131 7.48369 1.07741 7.32741C1.23369 7.17113 1.44565 7.08333 1.66667 7.08333H2.91667V8.33333ZM6.25 6.25H3.75V3.75H6.25V6.25ZM7.08333 7.08333H8.33333C8.55435 7.08333 8.76631 7.17113 8.92259 7.32741C9.07887 7.48369 9.16667 7.69565 9.16667 7.91667V8.33333C9.16667 8.55435 9.07887 8.76631 8.92259 8.92259C8.76631 9.07887 8.55435 9.16667 8.33333 9.16667H7.91667C7.69565 9.16667 7.48369 9.07887 7.32741 8.92259C7.17113 8.76631 7.08333 8.55435 7.08333 8.33333V7.08333Z" fill="#7A6DE2"/>
</svg>
