<svg width="22" height="22" viewBox="0 0 22 22" fill="none" xmlns="http://www.w3.org/2000/svg">
<path d="M17.7692 15.2308C17.3462 15.2308 16.9231 15.0615 16.5846 14.7231L14.0462 12.1846C13.7077 11.8462 13.5385 11.4231 13.5385 11C13.5385 10.5769 13.7077 10.1538 14.0462 9.81538L16.5846 7.27692C16.9231 6.93846 17.3462 6.76923 17.7692 6.76923C18.1923 6.76923 18.6154 6.93846 18.9538 7.27692L21.4923 9.81538C21.8308 10.1538 22 10.5769 22 11C22 11.4231 21.8308 11.8462 21.4923 12.1846L18.9538 14.7231C18.6154 15.0615 18.1923 15.2308 17.7692 15.2308ZM17.7692 8.46154L15.2308 11L17.7692 13.5385L20.3077 11L17.7692 8.46154ZM11 8.46154C10.5769 8.46154 10.1538 8.29231 9.81538 7.95385L7.27692 5.41538C6.93846 5.07692 6.76923 4.65385 6.76923 4.23077C6.76923 3.80769 6.93846 3.38462 7.27692 3.04615L9.81538 0.507692C10.1538 0.169231 10.5769 0 11 0C11.4231 0 11.8462 0.169231 12.1846 0.507692L14.7231 3.04615C15.0615 3.38462 15.2308 3.80769 15.2308 4.23077C15.2308 4.65385 15.0615 5.07692 14.7231 5.41538L12.1846 7.95385C11.8462 8.29231 11.4231 8.46154 11 8.46154ZM11 1.69231L8.46154 4.23077L11 6.76923L13.5385 4.23077L11 1.69231ZM11 22C10.5769 22 10.1538 21.8308 9.81538 21.4923L7.27692 18.9538C6.93846 18.6154 6.76923 18.1923 6.76923 17.7692C6.76923 17.3462 6.93846 16.9231 7.27692 16.5846L9.81538 14.0462C10.1538 13.7077 10.5769 13.5385 11 13.5385C11.4231 13.5385 11.8462 13.7077 12.1846 14.0462L14.7231 16.5846C15.0615 16.9231 15.2308 17.3462 15.2308 17.7692C15.2308 18.1923 15.0615 18.6154 14.7231 18.9538L12.1846 21.4923C11.8462 21.8308 11.4231 22 11 22ZM11 15.2308L8.46154 17.7692L11 20.3077L13.5385 17.7692L11 15.2308ZM4.23077 15.2308C3.80769 15.2308 3.38462 15.0615 3.04615 14.7231L0.507692 12.1846C0.169231 11.8462 0 11.4231 0 11C0 10.5769 0.169231 10.1538 0.507692 9.81538L3.04615 7.27692C3.38462 6.93846 3.80769 6.76923 4.23077 6.76923C4.65385 6.76923 5.07692 6.93846 5.41538 7.27692L7.95385 9.81538C8.29231 10.1538 8.46154 10.5769 8.46154 11C8.46154 11.4231 8.29231 11.8462 7.95385 12.1846L5.41538 14.7231C5.07692 15.0615 4.65385 15.2308 4.23077 15.2308ZM4.23077 8.46154L1.69231 11L4.23077 13.5385L6.76923 11L4.23077 8.46154Z" fill="#5E5E5E"/>
</svg>
