<svg width="15" height="16" viewBox="0 0 15 16" fill="none" xmlns="http://www.w3.org/2000/svg">
<path fill-rule="evenodd" clip-rule="evenodd" d="M2.07692 0.499512H2.01923C1.755 0.499512 1.52769 0.499512 1.32692 0.546819C1.01612 0.621087 0.731942 0.77995 0.505881 1.00581C0.27982 1.23166 0.120701 1.5157 0.0461538 1.82644C-4.29841e-08 2.0272 0 2.25336 0 2.51874V5.40336C0 5.66759 8.59682e-09 5.8949 0.0473077 6.09567C0.121575 6.40647 0.280438 6.69065 0.506295 6.91671C0.732153 7.14277 1.01619 7.30189 1.32692 7.37644C1.52769 7.42259 1.75385 7.42259 2.01923 7.42259H4.90385C5.16808 7.42259 5.39538 7.42259 5.59615 7.37528C5.90696 7.30101 6.19113 7.14215 6.4172 6.91629C6.64326 6.69044 6.80238 6.4064 6.87692 6.09567C6.92308 5.8949 6.92308 5.66874 6.92308 5.40336V2.51874C6.92308 2.25451 6.92308 2.0272 6.87577 1.82644C6.8015 1.51563 6.64264 1.23145 6.41678 1.00539C6.19092 0.779332 5.90689 0.620213 5.59615 0.545666C5.39538 0.499512 5.16923 0.499512 4.90385 0.499512H2.07692ZM1.59577 1.66951C1.64538 1.65797 1.72269 1.65336 2.07692 1.65336H4.84615C5.20154 1.65336 5.27769 1.65682 5.32731 1.66951C5.43096 1.6943 5.52572 1.74731 5.60107 1.82267C5.67643 1.89803 5.72944 1.99279 5.75423 2.09644C5.76577 2.1449 5.76923 2.22105 5.76923 2.57643V5.34567C5.76923 5.70105 5.76577 5.7772 5.75308 5.82682C5.72829 5.93047 5.67528 6.02523 5.59992 6.10059C5.52456 6.17594 5.4298 6.22896 5.32615 6.25374C5.27885 6.26413 5.20269 6.26874 4.84615 6.26874H2.07692C1.72154 6.26874 1.64538 6.26528 1.59577 6.25259C1.49212 6.2278 1.39736 6.17479 1.322 6.09943C1.24664 6.02407 1.19363 5.92932 1.16885 5.82567C1.15846 5.77836 1.15385 5.7022 1.15385 5.34567V2.57643C1.15385 2.22105 1.15731 2.1449 1.17 2.09528C1.19479 1.99163 1.2478 1.89687 1.32316 1.82151C1.39851 1.74616 1.49327 1.69314 1.59692 1.66836L1.59577 1.66951ZM10.1538 0.499512H10.0962C9.83192 0.499512 9.60462 0.499512 9.40385 0.546819C9.09304 0.621087 8.80887 0.77995 8.5828 1.00581C8.35674 1.23166 8.19762 1.5157 8.12308 1.82644C8.07692 2.0272 8.07692 2.25336 8.07692 2.51874V5.40336C8.07692 5.66759 8.07692 5.8949 8.12423 6.09567C8.1985 6.40647 8.35736 6.69065 8.58322 6.91671C8.80908 7.14277 9.09311 7.30189 9.40385 7.37644C9.60462 7.42259 9.83077 7.42259 10.0962 7.42259H12.9808C13.245 7.42259 13.4723 7.42259 13.6731 7.37528C13.9839 7.30101 14.2681 7.14215 14.4941 6.91629C14.7202 6.69044 14.8793 6.4064 14.9538 6.09567C15 5.8949 15 5.66874 15 5.40336V2.51874C15 2.25451 15 2.0272 14.9527 1.82644C14.8784 1.51563 14.7196 1.23145 14.4937 1.00539C14.2678 0.779332 13.9838 0.620213 13.6731 0.545666C13.4723 0.499512 13.2462 0.499512 12.9808 0.499512H10.1538ZM9.67269 1.66951C9.72231 1.65797 9.79962 1.65336 10.1538 1.65336H12.9231C13.2785 1.65336 13.3546 1.65682 13.4042 1.66951C13.5079 1.6943 13.6026 1.74731 13.678 1.82267C13.7534 1.89803 13.8064 1.99279 13.8312 2.09644C13.8427 2.1449 13.8462 2.22105 13.8462 2.57643V5.34567C13.8462 5.70105 13.8415 5.7772 13.83 5.82682C13.8052 5.93047 13.7522 6.02523 13.6768 6.10059C13.6015 6.17594 13.5067 6.22896 13.4031 6.25374C13.3546 6.26528 13.2785 6.26874 12.9231 6.26874H10.1538C9.79846 6.26874 9.72231 6.26528 9.67269 6.25259C9.56904 6.2278 9.47428 6.17479 9.39893 6.09943C9.32357 6.02407 9.27055 5.92932 9.24577 5.82567C9.23538 5.77836 9.23077 5.7022 9.23077 5.34567V2.57643C9.23077 2.22105 9.23423 2.1449 9.24692 2.09528C9.27171 1.99163 9.32472 1.89687 9.40008 1.82151C9.47544 1.74616 9.5702 1.69314 9.67385 1.66836L9.67269 1.66951ZM2.01923 8.57644H4.90385C5.16808 8.57644 5.39538 8.57644 5.59615 8.62374C5.90696 8.69801 6.19113 8.85687 6.4172 9.08273C6.64326 9.30859 6.80238 9.59262 6.87692 9.90336C6.92308 10.1041 6.92308 10.3303 6.92308 10.5957V13.4803C6.92308 13.7445 6.92308 13.9718 6.87577 14.1726C6.8015 14.4834 6.64264 14.7676 6.41678 14.9936C6.19092 15.2197 5.90689 15.3788 5.59615 15.4534C5.39538 15.4995 5.16923 15.4995 4.90385 15.4995H2.01923C1.755 15.4995 1.52769 15.4995 1.32692 15.4522C1.01612 15.3779 0.731942 15.2191 0.505881 14.9932C0.27982 14.7674 0.120701 14.4833 0.0461538 14.1726C-4.29841e-08 13.9718 0 13.7457 0 13.4803V10.5957C0 10.3314 8.59682e-09 10.1041 0.0473077 9.90336C0.121575 9.59255 0.280438 9.30838 0.506295 9.08232C0.732153 8.85626 1.01619 8.69714 1.32692 8.62259C1.52769 8.57644 1.75385 8.57644 2.01923 8.57644ZM2.07692 9.73028C1.72154 9.73028 1.64538 9.73374 1.59577 9.74644C1.49212 9.77122 1.39736 9.82423 1.322 9.89959C1.24664 9.97495 1.19363 10.0697 1.16885 10.1734C1.15846 10.2207 1.15385 10.2968 1.15385 10.6534V13.4226C1.15385 13.778 1.15731 13.8541 1.17 13.9037C1.19479 14.0074 1.2478 14.1022 1.32316 14.1775C1.39851 14.2529 1.49327 14.3059 1.59692 14.3307C1.64538 14.3422 1.72154 14.3457 2.07692 14.3457H4.84615C5.20154 14.3457 5.27769 14.3411 5.32731 14.3295C5.43096 14.3047 5.52572 14.2517 5.60107 14.1764C5.67643 14.101 5.72944 14.0062 5.75423 13.9026C5.76577 13.8541 5.76923 13.778 5.76923 13.4226V10.6534C5.76923 10.298 5.76577 10.2218 5.75308 10.1722C5.72829 10.0686 5.67528 9.9738 5.59992 9.89844C5.52456 9.82308 5.4298 9.77007 5.32615 9.74528C5.27885 9.7349 5.20269 9.73028 4.84615 9.73028H2.07692ZM10.1538 8.57644H10.0962C9.83192 8.57644 9.60462 8.57644 9.40385 8.62374C9.09304 8.69801 8.80887 8.85687 8.5828 9.08273C8.35674 9.30859 8.19762 9.59262 8.12308 9.90336C8.07692 10.1041 8.07692 10.3303 8.07692 10.5957V13.4803C8.07692 13.7445 8.07692 13.9718 8.12423 14.1726C8.1985 14.4834 8.35736 14.7676 8.58322 14.9936C8.80908 15.2197 9.09311 15.3788 9.40385 15.4534C9.60462 15.5007 9.83192 15.5007 10.0962 15.5007H12.9808C13.245 15.5007 13.4723 15.5007 13.6731 15.4534C13.9837 15.3789 14.2676 15.22 14.4934 14.9941C14.7193 14.7683 14.8782 14.4843 14.9527 14.1737C15 13.973 15 13.7457 15 13.4814V10.5957C15 10.3314 15 10.1041 14.9527 9.90336C14.8784 9.59255 14.7196 9.30838 14.4937 9.08232C14.2678 8.85626 13.9838 8.69714 13.6731 8.62259C13.4723 8.57644 13.2462 8.57644 12.9808 8.57644H10.1538ZM9.67269 9.74644C9.72231 9.7349 9.79962 9.73028 10.1538 9.73028H12.9231C13.2785 9.73028 13.3546 9.73374 13.4042 9.74644C13.5079 9.77122 13.6026 9.82423 13.678 9.89959C13.7534 9.97495 13.8064 10.0697 13.8312 10.1734C13.8427 10.2218 13.8462 10.298 13.8462 10.6534V13.4226C13.8462 13.778 13.8415 13.8541 13.83 13.9037C13.8052 14.0074 13.7522 14.1022 13.6768 14.1775C13.6015 14.2529 13.5067 14.3059 13.4031 14.3307C13.3546 14.3422 13.2785 14.3457 12.9231 14.3457H10.1538C9.79846 14.3457 9.72231 14.3411 9.67269 14.3295C9.56904 14.3047 9.47428 14.2517 9.39893 14.1764C9.32357 14.101 9.27055 14.0062 9.24577 13.9026C9.23538 13.8553 9.23077 13.7791 9.23077 13.4226V10.6534C9.23077 10.298 9.23423 10.2218 9.24692 10.1722C9.27171 10.0686 9.32472 9.9738 9.40008 9.89844C9.47544 9.82308 9.5702 9.77007 9.67385 9.74528L9.67269 9.74644Z" fill="#292929" fill-opacity="0.25"/>
</svg>
